<svg width="347" height="150" viewBox="0 0 347 150" fill="none" xmlns="http://www.w3.org/2000/svg">
<path fill-rule="evenodd" clip-rule="evenodd" d="M219.486 56.6765L222.304 63.134L225.2 63.4146L215.63 41.4722L214.137 41.3276L205.134 61.4707L206.508 61.6037L209.184 55.6785L219.486 56.6765ZM218.869 55.2658L209.762 54.3835L214.14 44.6904L214.26 44.7019L218.869 55.2658ZM129.489 59.2877L129.368 43.2382L130.74 43.0945L130.901 64.4539L130.752 64.4695L114.069 49.7929L113.95 49.8054L114.07 65.855L112.698 65.9986L112.537 44.6392L112.686 44.6236L129.369 59.3002L129.489 59.2877ZM66.5681 54.4603L66.9012 75.4577L80.1434 72.5392L80.1173 70.8894L69.5411 73.2203L69.4017 64.4314L78.4837 62.4298L78.4618 61.0499L69.3798 63.0516L69.2603 55.5225L79.8365 53.1916L79.8104 51.5418L66.5681 54.4603ZM19.4135 89.8857L26.5756 87.5608C27.8502 87.147 28.921 86.6282 29.7882 86.0042C30.6549 85.3603 31.3481 84.6719 31.8677 83.9391C32.3874 83.2064 32.7532 82.4531 32.9653 81.6791C33.1959 80.8791 33.3028 80.1191 33.2862 79.3993C33.2597 78.2596 33.0008 77.4271 32.5095 76.9016C32.0372 76.37 31.4735 76.0292 30.8184 75.8793C30.1632 75.7293 29.4919 75.7055 28.8043 75.8079C28.1167 75.9102 27.5634 76.0193 27.1444 76.1352L27.1416 76.0152C27.8074 75.7991 28.4322 75.4653 29.0159 75.0139C29.5991 74.5426 30.1046 74.026 30.5324 73.464C30.9787 72.876 31.3286 72.2588 31.5819 71.6125C31.8348 70.9462 31.9538 70.2931 31.939 69.6533C31.926 69.0934 31.7986 68.5606 31.5569 68.0549C31.3152 67.5491 30.951 67.1335 30.4643 66.808C29.9966 66.4764 29.3884 66.281 28.6395 66.2219C27.9092 66.1366 27.0495 66.2546 26.0603 66.5757L18.9267 68.8914L19.4135 89.8857ZM21.9796 87.7232L21.7668 78.5456L24.9055 77.5267C25.8376 77.2241 26.6491 77.0917 27.34 77.1293C28.0308 77.1669 28.6001 77.3347 29.0478 77.6325C29.5146 77.9242 29.8593 78.326 30.082 78.8379C30.3237 79.3436 30.452 79.9164 30.4668 80.5563C30.4831 81.2561 30.3738 81.916 30.139 82.5362C29.9232 83.1501 29.62 83.7119 29.2294 84.2215C28.8387 84.731 28.3698 85.1754 27.8228 85.5544C27.2943 85.9072 26.7258 86.1825 26.117 86.3801L21.9796 87.7232ZM21.7362 77.226L21.554 69.3681L25.0351 68.238C25.777 67.9972 26.4073 67.9034 26.926 67.9566C27.4638 68.0037 27.8985 68.1546 28.2303 68.4096C28.581 68.6583 28.8378 68.9879 29.0007 69.3984C29.1635 69.8089 29.2503 70.244 29.2609 70.7039C29.2744 71.2838 29.1727 71.8607 28.9561 72.4346C28.7584 73.0024 28.464 73.5311 28.0729 74.0207C27.7008 74.5041 27.2602 74.9291 26.7512 75.2958C26.2613 75.6563 25.731 75.9292 25.1603 76.1145L21.7362 77.226ZM265.124 68.9588L265.457 47.9614L272.107 49.4271C273.416 49.7156 274.497 50.1444 275.35 50.7138C276.204 51.2631 276.87 51.8716 277.35 52.5391C277.849 53.191 278.191 53.8584 278.376 54.5414C278.581 55.2286 278.679 55.8422 278.671 56.3822C278.661 56.9821 278.554 57.5805 278.348 58.1774C278.143 58.7542 277.821 59.2653 277.383 59.7105C276.945 60.1558 276.381 60.483 275.692 60.6923C275.022 60.9059 274.218 60.9394 273.279 60.7928L273.277 60.9128L273.568 61.1273C273.801 61.2989 273.993 61.492 274.147 61.7064C274.32 61.9251 274.53 62.2624 274.778 62.7183C275.045 63.1785 275.397 63.8281 275.835 64.667C276.272 65.4859 276.892 66.5957 277.693 67.9963C277.959 68.4766 278.217 68.9146 278.466 69.3105C278.714 69.6865 278.974 70.0245 279.243 70.3248C279.513 70.605 279.803 70.8395 280.114 71.0284C280.425 71.2173 280.785 71.3569 281.195 71.4473L281.488 71.5119L281.782 71.5164L281.764 72.6263C281.489 72.726 281.214 72.7657 280.939 72.7455C280.665 72.7252 280.313 72.6677 279.884 72.573C279.298 72.4439 278.791 72.252 278.364 71.9973C277.957 71.7469 277.589 71.4551 277.261 71.122C276.933 70.7689 276.626 70.37 276.339 69.9255C276.072 69.4853 275.795 69.0029 275.509 68.4784L273.251 64.4588C272.908 63.8214 272.613 63.2847 272.365 62.8488C272.117 62.4129 271.848 62.0426 271.559 61.7381C271.27 61.4336 270.941 61.1904 270.571 61.0086C270.221 60.8312 269.773 60.6822 269.226 60.5616L267.937 60.2775L267.79 69.5464L265.124 68.9588ZM271.061 50.521L268.102 49.8688L267.958 58.9277L270.976 59.5928C271.757 59.7649 272.443 59.7756 273.033 59.6248C273.643 59.4783 274.157 59.2302 274.574 58.8807C274.991 58.5111 275.302 58.0779 275.506 57.581C275.73 57.0685 275.846 56.5422 275.854 56.0023C275.865 55.3624 275.757 54.7466 275.531 54.155C275.325 53.5677 275.01 53.0368 274.586 52.5621C274.163 52.0675 273.65 51.6434 273.048 51.29C272.465 50.9409 271.803 50.6846 271.061 50.521ZM321.834 83.3262L322.288 63.9815L329.933 66.4705L329.971 64.821L312.086 58.9977L312.047 60.6472L319.692 63.1363L319.239 82.481L321.834 83.3262ZM83.623 99.915C84.583 100.315 85.603 100.515 86.683 100.515C87.603 100.515 88.523 100.375 89.443 100.095C90.363 99.815 91.203 99.405 91.963 98.865C92.743 98.325 93.363 97.665 93.823 96.885C94.283 96.085 94.513 95.165 94.513 94.125C94.513 93.105 94.293 92.245 93.853 91.545C93.433 90.825 92.883 90.205 92.203 89.685C91.523 89.165 90.793 88.695 90.013 88.275C89.253 87.835 88.533 87.405 87.853 86.985C87.173 86.545 86.613 86.065 86.173 85.545C85.753 85.005 85.543 84.365 85.543 83.625C85.543 83.005 85.703 82.315 86.023 81.555C86.363 80.795 86.833 80.075 87.433 79.395C88.033 78.695 88.733 78.125 89.533 77.685C90.333 77.245 91.203 77.025 92.143 77.025C92.783 77.025 93.223 77.145 93.463 77.385C93.703 77.605 93.823 77.915 93.823 78.315C93.823 78.755 93.733 79.255 93.553 79.815C93.373 80.355 93.163 80.915 92.923 81.495C92.703 82.075 92.503 82.635 92.323 83.175C92.143 83.715 92.053 84.195 92.053 84.615C92.053 84.935 92.123 85.215 92.263 85.455C92.423 85.675 92.683 85.825 93.043 85.905C93.363 85.385 93.703 84.755 94.063 84.015C94.423 83.255 94.723 82.465 94.963 81.645C95.223 80.805 95.353 80.025 95.353 79.305C95.353 78.445 95.123 77.735 94.663 77.175C94.203 76.595 93.383 76.305 92.203 76.305C90.903 76.305 89.723 76.565 88.663 77.085C87.623 77.585 86.723 78.245 85.963 79.065C85.223 79.885 84.653 80.755 84.253 81.675C83.853 82.595 83.653 83.475 83.653 84.315C83.653 85.215 83.873 85.985 84.313 86.625C84.753 87.265 85.313 87.835 85.993 88.335C86.693 88.815 87.433 89.275 88.213 89.715C88.993 90.155 89.723 90.615 90.403 91.095C91.103 91.575 91.673 92.125 92.113 92.745C92.553 93.365 92.773 94.105 92.773 94.965C92.773 95.925 92.493 96.735 91.933 97.395C91.393 98.035 90.693 98.515 89.833 98.835C88.973 99.175 88.093 99.345 87.193 99.345C86.153 99.345 85.293 99.145 84.613 98.745C83.933 98.365 83.423 97.855 83.083 97.215C82.763 96.575 82.603 95.885 82.603 95.145C82.603 94.445 82.743 93.745 83.023 93.045C83.303 92.345 83.713 91.705 84.253 91.125C83.713 91.125 83.143 91.245 82.543 91.485C81.943 91.725 81.433 92.135 81.013 92.715C80.613 93.295 80.413 94.105 80.413 95.145C80.413 96.345 80.703 97.345 81.283 98.145C81.883 98.945 82.663 99.535 83.623 99.915ZM96.557 96.315C96.557 98.295 97.447 99.285 99.227 99.285C100.167 99.285 101.077 99.025 101.957 98.505C102.837 97.985 103.637 97.275 104.357 96.375C104.686 95.9748 104.989 95.5528 105.267 95.109C105.243 95.3428 105.232 95.5648 105.232 95.775C105.232 96.575 105.432 97.285 105.832 97.905C106.252 98.505 106.802 98.805 107.482 98.805C108.242 98.805 108.942 98.435 109.582 97.695C110.242 96.935 110.852 96.065 111.412 95.085C111.352 95.345 111.302 95.605 111.262 95.865C111.222 96.105 111.202 96.345 111.202 96.585C111.202 97.205 111.352 97.725 111.652 98.145C111.952 98.585 112.502 98.805 113.302 98.805C114.022 98.805 114.762 98.575 115.522 98.115C116.282 97.655 117.002 97.015 117.682 96.195C117.765 96.0925 117.846 95.9881 117.925 95.882C117.912 96.0195 117.906 96.1538 117.906 96.285C117.906 97.165 118.156 97.805 118.656 98.205C119.156 98.605 119.656 98.805 120.156 98.805C120.776 98.805 121.426 98.565 122.106 98.085C122.806 97.605 123.516 96.945 124.236 96.105C124.956 95.245 125.636 94.285 126.276 93.225C126.096 93.905 125.956 94.525 125.856 95.085C125.756 95.645 125.706 96.095 125.706 96.435C125.706 96.955 125.846 97.455 126.126 97.935C126.426 98.435 126.946 98.685 127.686 98.685C128.366 98.685 129.076 98.445 129.816 97.965C130.576 97.505 131.286 96.875 131.946 96.075C132.136 95.8386 132.315 95.5939 132.482 95.3409C132.438 95.6487 132.416 95.9234 132.416 96.165C132.416 96.865 132.606 97.455 132.986 97.935C133.366 98.435 133.946 98.685 134.726 98.685C135.906 98.685 137.036 98.225 138.116 97.305C138.643 96.8643 139.11 96.3317 139.518 95.7073C139.507 95.8509 139.502 95.9935 139.502 96.135C139.502 96.895 139.682 97.535 140.042 98.055C140.402 98.595 141.012 98.865 141.872 98.865C142.632 98.865 143.412 98.565 144.212 97.965C145.032 97.365 145.782 96.615 146.462 95.715C146.882 95.915 147.362 96.015 147.902 96.015C148.562 96.015 149.252 95.825 149.972 95.445C150.712 95.045 151.282 94.375 151.682 93.435L151.322 93.135C150.962 93.955 150.452 94.525 149.792 94.845C149.132 95.145 148.572 95.295 148.112 95.295C147.712 95.295 147.332 95.195 146.972 94.995C147.552 94.115 148.032 93.205 148.412 92.265C148.792 91.305 148.982 90.435 148.982 89.655C148.982 88.995 148.842 88.445 148.562 88.005C148.282 87.565 147.732 87.345 146.912 87.345C146.292 87.345 145.762 87.525 145.322 87.885C144.882 88.225 144.542 88.685 144.302 89.265C144.082 89.845 143.972 90.465 143.972 91.125C143.972 91.905 144.122 92.675 144.422 93.435C144.742 94.175 145.182 94.775 145.742 95.235C145.182 95.935 144.612 96.515 144.032 96.975C143.452 97.415 142.952 97.635 142.532 97.635C142.212 97.635 141.952 97.505 141.752 97.245C141.552 96.965 141.452 96.525 141.452 95.925C141.452 95.545 141.522 95.085 141.662 94.545C141.822 94.005 142.012 93.465 142.232 92.925C142.452 92.365 142.682 91.875 142.922 91.455C143.182 91.015 143.402 90.715 143.582 90.555C143.342 90.455 143.132 90.405 142.952 90.405C142.532 90.405 142.112 90.585 141.692 90.945C141.292 91.305 140.922 91.775 140.582 92.355C140.306 92.8548 140.075 93.3842 139.888 93.9433C139.201 95.1713 138.54 96.0619 137.906 96.615C137.146 97.295 136.426 97.635 135.746 97.635C135.246 97.635 134.876 97.515 134.636 97.275C134.396 97.035 134.276 96.555 134.276 95.835C134.276 95.135 134.426 94.405 134.726 93.645C135.046 92.865 135.416 92.125 135.836 91.425C136.256 90.725 136.616 90.105 136.916 89.565C137.236 89.025 137.396 88.635 137.396 88.395C137.396 88.175 137.326 88.015 137.186 87.915C137.066 87.795 136.916 87.735 136.736 87.735C136.336 87.735 135.926 87.955 135.506 88.395C135.086 88.815 134.686 89.365 134.306 90.045C133.946 90.725 133.626 91.455 133.346 92.235C133.18 92.6835 133.033 93.1215 132.902 93.549C132.54 94.2568 132.131 94.8788 131.676 95.415C131.116 96.075 130.556 96.585 129.996 96.945C129.436 97.305 128.946 97.485 128.526 97.485C128.186 97.485 127.986 97.345 127.926 97.065C127.866 96.785 127.836 96.365 127.836 95.805C127.836 94.805 127.996 93.705 128.316 92.505C128.656 91.285 129.086 90.025 129.606 88.725C130.146 87.425 130.706 86.145 131.286 84.885C131.866 83.625 132.416 82.465 132.936 81.405C133.476 80.325 133.906 79.405 134.226 78.645C134.566 77.865 134.736 77.315 134.736 76.995C134.736 76.795 134.676 76.635 134.556 76.515C134.436 76.375 134.296 76.305 134.136 76.305C133.816 76.305 133.446 76.565 133.026 77.085C132.626 77.585 132.196 78.275 131.736 79.155C131.296 80.015 130.836 81.005 130.356 82.125C129.876 83.225 129.396 84.375 128.916 85.575C128.456 86.775 128.006 87.955 127.566 89.115C126.926 90.775 126.206 92.225 125.406 93.465C124.606 94.705 123.816 95.665 123.036 96.345C122.276 97.025 121.626 97.365 121.086 97.365C120.766 97.365 120.506 97.235 120.306 96.975C120.106 96.715 120.006 96.365 120.006 95.925C120.006 95.465 120.106 94.905 120.306 94.245C120.526 93.565 120.826 92.865 121.206 92.145C121.586 91.425 122.026 90.755 122.526 90.135C123.046 89.495 123.606 88.985 124.206 88.605C124.826 88.205 125.456 88.005 126.096 88.005C126.656 88.005 127.036 88.155 127.236 88.455C127.256 88.375 127.266 88.305 127.266 88.245C127.286 88.185 127.296 88.115 127.296 88.035C127.296 87.415 126.856 87.105 125.976 87.105C125.236 87.105 124.486 87.315 123.726 87.735C122.966 88.135 122.236 88.685 121.536 89.385C120.836 90.065 120.216 90.815 119.676 91.635C119.136 92.435 118.706 93.245 118.386 94.065C118.369 94.1082 118.353 94.1512 118.337 94.1939C118.014 94.7418 117.665 95.2389 117.292 95.685C116.672 96.405 116.062 96.955 115.462 97.335C114.862 97.715 114.352 97.905 113.932 97.905C113.572 97.905 113.312 97.795 113.152 97.575C113.012 97.355 112.942 97.065 112.942 96.705C112.942 96.205 113.042 95.625 113.242 94.965C113.442 94.305 113.672 93.655 113.932 93.015C114.212 92.355 114.452 91.805 114.652 91.365C114.852 90.905 114.952 90.635 114.952 90.555C114.952 90.375 114.852 90.235 114.652 90.135C114.472 90.035 114.262 89.955 114.022 89.895C113.802 89.835 113.632 89.795 113.512 89.775C113.292 90.215 113.012 90.765 112.672 91.425C112.352 92.085 112.002 92.775 111.622 93.495C111.242 94.215 110.842 94.885 110.422 95.505C110.022 96.125 109.622 96.635 109.222 97.035C108.822 97.415 108.432 97.605 108.052 97.605C107.732 97.605 107.492 97.475 107.332 97.215C107.172 96.955 107.072 96.665 107.032 96.345C106.992 96.005 106.972 95.755 106.972 95.595C106.972 94.915 107.092 94.175 107.332 93.375C107.572 92.575 107.852 91.825 108.172 91.125C108.492 90.425 108.762 89.905 108.982 89.565C108.822 89.385 108.622 89.245 108.382 89.145C108.142 89.025 107.972 88.965 107.872 88.965C107.652 88.965 107.392 89.205 107.092 89.685C106.792 90.165 106.502 90.775 106.222 91.515C105.976 92.1648 105.761 92.8222 105.577 93.4873C104.868 94.8601 104.062 95.9626 103.157 96.795C102.157 97.715 101.137 98.175 100.097 98.175C99.497 98.175 99.067 97.995 98.807 97.635C98.547 97.255 98.417 96.635 98.417 95.775C98.417 94.715 98.577 93.625 98.897 92.505C99.217 91.385 99.607 90.295 100.067 89.235H100.517C101.857 89.235 103.617 89.115 105.797 88.875V88.335C105.057 88.415 104.317 88.465 103.577 88.485C102.857 88.505 102.167 88.515 101.507 88.515H100.397C100.977 87.275 101.577 86.125 102.197 85.065C102.817 84.005 103.337 83.095 103.757 82.335C104.177 81.555 104.387 80.995 104.387 80.655C104.387 80.435 104.317 80.275 104.177 80.175C104.057 80.055 103.917 79.995 103.757 79.995C103.457 79.995 103.087 80.235 102.647 80.715C102.227 81.175 101.777 81.805 101.297 82.605C100.837 83.385 100.367 84.285 99.887 85.305C99.407 86.305 98.957 87.345 98.537 88.425C98.257 88.405 98.007 88.385 97.787 88.365C97.567 88.345 97.377 88.325 97.217 88.305V88.845C97.377 88.905 97.547 88.955 97.727 88.995C97.907 89.015 98.097 89.045 98.297 89.085C97.797 90.445 97.377 91.775 97.037 93.075C96.717 94.355 96.557 95.435 96.557 96.315ZM137.456 84.705C137.716 84.865 138.006 84.945 138.326 84.945C138.806 84.945 139.246 84.775 139.646 84.435C140.066 84.075 140.276 83.705 140.276 83.325C140.276 82.985 140.186 82.745 140.006 82.605C139.826 82.465 139.586 82.395 139.286 82.395C138.806 82.395 138.316 82.555 137.816 82.875C137.336 83.175 137.096 83.535 137.096 83.955C137.096 84.295 137.216 84.545 137.456 84.705ZM147.512 92.145C147.192 92.945 146.782 93.715 146.282 94.455C145.942 94.055 145.682 93.565 145.502 92.985C145.342 92.385 145.262 91.795 145.262 91.215C145.262 90.335 145.472 89.605 145.892 89.025C146.312 88.445 146.722 88.155 147.122 88.155C147.382 88.155 147.592 88.295 147.752 88.575C147.932 88.835 148.022 89.255 148.022 89.835C148.022 90.555 147.852 91.325 147.512 92.145ZM161.672 100.245C162.232 100.425 162.822 100.515 163.442 100.515C164.842 100.515 166.232 100.235 167.612 99.675C169.012 99.135 170.322 98.375 171.542 97.395C172.762 96.395 173.842 95.235 174.782 93.915C175.742 92.575 176.492 91.115 177.032 89.535C177.572 87.935 177.842 86.265 177.842 84.525C177.842 82.985 177.592 81.595 177.092 80.355C176.592 79.115 175.792 78.135 174.692 77.415C173.612 76.675 172.172 76.305 170.372 76.305C169.092 76.305 167.882 76.495 166.742 76.875C165.602 77.235 164.592 77.715 163.712 78.315C162.852 78.915 162.172 79.575 161.672 80.295C161.192 80.995 160.952 81.695 160.952 82.395C160.952 82.855 161.082 83.255 161.342 83.595C161.622 83.915 162.092 84.075 162.752 84.075C162.652 83.775 162.602 83.405 162.602 82.965C162.602 81.865 162.902 80.875 163.502 79.995C164.102 79.115 164.922 78.415 165.962 77.895C167.002 77.375 168.172 77.115 169.472 77.115C171.292 77.115 172.772 77.685 173.912 78.825C175.052 79.965 175.622 81.755 175.622 84.195C175.622 85.675 175.402 87.165 174.962 88.665C174.542 90.145 173.942 91.555 173.162 92.895C172.382 94.215 171.472 95.395 170.432 96.435C169.412 97.455 168.302 98.255 167.102 98.835C165.922 99.435 164.692 99.735 163.412 99.735C163.032 99.735 162.602 99.695 162.122 99.615C162.442 98.175 162.842 96.575 163.322 94.815C163.802 93.055 164.332 91.255 164.912 89.415C165.492 87.555 166.092 85.755 166.712 84.015C167.352 82.275 167.982 80.685 168.602 79.245C168.322 79.045 168.042 78.945 167.762 78.945C167.362 78.945 167.002 79.135 166.682 79.515C166.362 79.895 166.092 80.315 165.872 80.775C165.652 81.215 165.502 81.545 165.422 81.765C165.242 82.225 164.992 82.935 164.672 83.895C164.352 84.855 163.982 85.975 163.562 87.255C163.162 88.515 162.752 89.845 162.332 91.245C161.912 92.645 161.512 94.035 161.132 95.415C160.772 96.775 160.472 98.025 160.232 99.165C160.632 99.725 161.112 100.085 161.672 100.245ZM178.427 98.205C179.047 98.885 179.967 99.225 181.187 99.225C182.187 99.225 183.167 98.975 184.127 98.475C185.107 97.995 186.007 97.315 186.827 96.435C187.311 95.927 187.746 95.3656 188.131 94.7508C188.082 95.1957 188.057 95.6171 188.057 96.015C188.057 96.475 188.067 96.925 188.087 97.365C188.127 97.785 188.217 98.135 188.357 98.415C188.517 98.695 188.767 98.835 189.107 98.835C189.347 98.835 189.577 98.765 189.797 98.625C190.017 98.505 190.187 98.265 190.307 97.905C190.467 97.445 190.667 96.865 190.907 96.165C191.147 95.465 191.437 94.725 191.777 93.945C192.117 93.165 192.497 92.435 192.917 91.755C193.357 91.055 193.847 90.495 194.387 90.075C194.927 89.635 195.507 89.415 196.127 89.415C196.527 89.415 196.877 89.535 197.177 89.775C197.477 90.015 197.627 90.345 197.627 90.765C197.627 91.265 197.467 91.705 197.147 92.085C196.847 92.445 196.477 92.745 196.037 92.985C195.597 93.205 195.167 93.375 194.747 93.495C194.327 93.595 194.007 93.645 193.787 93.645C193.787 94.105 193.837 94.645 193.937 95.265C194.057 95.865 194.227 96.455 194.447 97.035C194.687 97.615 195.007 98.095 195.407 98.475C195.807 98.855 196.287 99.045 196.847 99.045C197.547 99.045 198.247 98.765 198.947 98.205C199.667 97.665 200.317 96.965 200.897 96.105C200.922 96.0661 200.948 96.0272 200.973 95.9881C200.968 96.0784 200.965 96.1674 200.965 96.255C200.965 97.015 201.175 97.635 201.595 98.115C202.015 98.615 202.605 98.865 203.365 98.865C204.425 98.865 205.405 98.405 206.305 97.485C207.225 96.545 207.995 95.345 208.615 93.885C208.855 94.345 209.195 94.695 209.635 94.935C210.095 95.155 210.605 95.265 211.165 95.265C211.745 95.265 212.295 95.065 212.815 94.665C213.355 94.265 213.855 93.745 214.315 93.105C214.775 92.445 215.185 91.745 215.545 91.005C215.925 90.245 216.225 89.525 216.445 88.845C216.825 89.105 217.195 89.395 217.555 89.715C217.935 90.015 218.125 90.485 218.125 91.125C218.125 91.645 217.985 92.235 217.705 92.895C217.445 93.535 217.175 94.185 216.895 94.845C216.615 95.505 216.475 96.135 216.475 96.735C216.475 97.315 216.665 97.785 217.045 98.145C217.445 98.505 217.985 98.685 218.665 98.685C219.525 98.685 220.355 98.425 221.155 97.905C221.894 97.4365 222.568 96.8543 223.177 96.1584C223.148 96.3852 223.133 96.6074 223.133 96.825C223.133 97.665 223.353 98.285 223.793 98.685C224.213 99.105 224.733 99.315 225.353 99.315C226.093 99.315 226.813 99.025 227.513 98.445C228.233 97.865 229.023 96.995 229.883 95.835C229.823 96.155 229.793 96.445 229.793 96.705C229.793 97.225 229.963 97.705 230.303 98.145C230.663 98.585 231.213 98.805 231.953 98.805C232.673 98.805 233.403 98.575 234.143 98.115C234.903 97.655 235.613 97.015 236.273 96.195C236.472 95.9483 236.66 95.6898 236.836 95.4195C236.832 95.5277 236.83 95.6362 236.83 95.745C236.83 97.025 237.15 97.985 237.79 98.625C238.43 99.265 239.23 99.585 240.19 99.585C241.17 99.585 242.14 99.315 243.1 98.775C244.06 98.235 244.94 97.495 245.74 96.555C246.463 95.6876 247.047 94.7223 247.492 93.659C247.58 93.5107 247.678 93.3461 247.787 93.165C248.047 92.765 248.327 92.295 248.627 91.755C248.367 93.255 248.067 94.625 247.727 95.865C247.387 97.085 247.017 98.175 246.617 99.135C246.237 99.335 245.897 99.505 245.597 99.645C245.277 99.785 244.977 99.935 244.697 100.095C243.597 100.715 242.697 101.465 241.997 102.345C241.277 103.225 240.917 104.035 240.917 104.775C240.917 105.215 241.057 105.575 241.337 105.855C241.597 106.155 241.977 106.305 242.477 106.305C243.297 106.305 244.067 105.955 244.787 105.255C245.487 104.555 246.127 103.645 246.707 102.525C247.307 101.405 247.827 100.225 248.267 98.985C248.887 98.625 249.557 98.245 250.277 97.845C250.997 97.445 251.697 96.905 252.377 96.225C252.642 95.9603 252.892 95.6612 253.128 95.3278C253.083 95.6409 253.06 95.92 253.06 96.165C253.06 96.865 253.25 97.455 253.63 97.935C254.01 98.435 254.59 98.685 255.37 98.685C256.55 98.685 257.68 98.225 258.76 97.305C259.86 96.385 260.7 95.065 261.28 93.345L261.01 93.045C260.15 94.745 259.33 95.935 258.55 96.615C257.79 97.295 257.07 97.635 256.39 97.635C255.89 97.635 255.52 97.515 255.28 97.275C255.04 97.035 254.92 96.555 254.92 95.835C254.92 95.135 255.07 94.405 255.37 93.645C255.69 92.865 256.06 92.125 256.48 91.425C256.9 90.725 257.26 90.105 257.56 89.565C257.88 89.025 258.04 88.635 258.04 88.395C258.04 88.175 257.97 88.015 257.83 87.915C257.71 87.795 257.56 87.735 257.38 87.735C256.98 87.735 256.57 87.955 256.15 88.395C255.73 88.815 255.33 89.365 254.95 90.045C254.59 90.725 254.27 91.455 253.99 92.235C253.805 92.7389 253.641 93.2296 253.499 93.7071C253.029 94.5079 252.545 95.1572 252.047 95.655C251.467 96.255 250.887 96.735 250.307 97.095C249.727 97.455 249.147 97.805 248.567 98.145C248.927 97.065 249.257 95.995 249.557 94.935C249.857 93.875 250.107 92.895 250.307 91.995C250.527 91.075 250.687 90.305 250.787 89.685C250.907 89.045 250.967 88.615 250.967 88.395C250.967 88.135 250.897 87.925 250.757 87.765C250.637 87.585 250.467 87.495 250.247 87.495C249.947 87.495 249.667 87.695 249.407 88.095C249.147 88.495 248.887 89.015 248.627 89.655C248.387 90.295 248.127 90.975 247.847 91.695C247.674 92.1615 247.483 92.6103 247.274 93.0413L247.24 93.015C247.177 93.1792 247.111 93.3402 247.042 93.4982C247.011 93.5575 246.979 93.6164 246.947 93.675L246.956 93.6904C246.578 94.5126 246.113 95.2475 245.56 95.895C244.86 96.715 244.1 97.345 243.28 97.785C242.48 98.225 241.68 98.445 240.88 98.445C240.02 98.445 239.44 98.185 239.14 97.665C238.84 97.145 238.69 96.575 238.69 95.955C238.69 95.215 238.84 94.425 239.14 93.585C239.46 92.745 239.86 91.945 240.34 91.185C240.84 90.425 241.37 89.805 241.93 89.325C242.51 88.845 243.07 88.605 243.61 88.605C243.87 88.605 244.04 88.675 244.12 88.815C244.22 88.935 244.27 89.115 244.27 89.355C244.27 89.795 244.16 90.265 243.94 90.765C243.72 91.245 243.46 91.565 243.16 91.725C243.4 92.025 243.69 92.175 244.03 92.175C244.49 92.175 244.85 91.955 245.11 91.515C245.39 91.075 245.53 90.565 245.53 89.985C245.53 89.465 245.38 88.965 245.08 88.485C244.78 88.005 244.22 87.765 243.4 87.765C242.64 87.765 241.87 87.995 241.09 88.455C240.31 88.895 239.6 89.495 238.96 90.255C238.32 91.015 237.8 91.875 237.4 92.835C237.248 93.211 237.126 93.5917 237.035 93.9772C236.325 95.1016 235.621 95.9809 234.923 96.615C234.043 97.395 233.333 97.785 232.793 97.785C232.433 97.785 232.173 97.645 232.013 97.365C231.853 97.065 231.773 96.765 231.773 96.465C231.773 96.105 231.863 95.725 232.043 95.325C232.223 94.905 232.423 94.495 232.643 94.095C232.863 93.695 233.063 93.345 233.243 93.045C233.423 92.725 233.513 92.475 233.513 92.295C233.513 92.075 233.363 91.905 233.063 91.785C232.763 91.645 232.523 91.565 232.343 91.545C232.323 91.545 232.273 91.605 232.193 91.725C231.793 92.325 231.333 92.985 230.813 93.705C230.293 94.425 229.743 95.125 229.163 95.805C228.603 96.465 228.053 97.015 227.513 97.455C226.973 97.875 226.473 98.085 226.013 98.085C225.473 98.085 225.203 97.695 225.203 96.915C225.203 96.335 225.323 95.675 225.563 94.935C225.803 94.195 226.133 93.445 226.553 92.685C226.973 91.925 227.453 91.225 227.993 90.585C228.533 89.925 229.093 89.405 229.673 89.025C230.253 88.625 230.823 88.425 231.383 88.425C231.923 88.425 232.303 88.595 232.523 88.935C232.743 89.255 232.853 89.645 232.853 90.105C232.853 90.445 232.803 90.795 232.703 91.155C233.143 91.155 233.493 91.065 233.753 90.885C234.033 90.705 234.173 90.365 234.173 89.865C234.173 89.185 233.913 88.645 233.393 88.245C232.873 87.825 232.223 87.615 231.443 87.615C230.663 87.615 229.873 87.815 229.073 88.215C228.293 88.615 227.543 89.155 226.823 89.835C226.123 90.495 225.493 91.235 224.933 92.055C224.373 92.855 223.933 93.675 223.613 94.515C223.57 94.6271 223.529 94.7382 223.491 94.8484C223.166 95.2506 222.807 95.6395 222.415 96.015C221.935 96.475 221.435 96.855 220.915 97.155C220.415 97.455 219.925 97.605 219.445 97.605C219.205 97.605 218.995 97.545 218.815 97.425C218.635 97.305 218.545 97.065 218.545 96.705C218.545 96.285 218.665 95.795 218.905 95.235C219.165 94.675 219.415 94.085 219.655 93.465C219.915 92.845 220.045 92.235 220.045 91.635C220.045 90.995 219.885 90.475 219.565 90.075C219.265 89.655 218.915 89.305 218.515 89.025C218.115 88.725 217.755 88.465 217.435 88.245C217.135 88.005 216.985 87.745 216.985 87.465C216.985 87.405 217.035 87.235 217.135 86.955C217.255 86.655 217.315 86.455 217.315 86.355C217.315 86.255 217.295 86.115 217.255 85.935C217.235 85.735 217.115 85.635 216.895 85.635C216.735 85.635 216.485 85.825 216.145 86.205C215.805 86.585 215.635 87.075 215.635 87.675C215.635 87.955 215.735 88.195 215.935 88.395C215.755 89.055 215.485 89.745 215.125 90.465C214.785 91.185 214.395 91.855 213.955 92.475C213.515 93.075 213.065 93.575 212.605 93.975C212.165 94.355 211.745 94.545 211.345 94.545C210.725 94.545 210.275 94.415 209.995 94.155C209.715 93.875 209.575 93.455 209.575 92.895C209.575 92.355 209.665 91.845 209.845 91.365C210.045 90.885 210.245 90.455 210.445 90.075C210.645 89.675 210.745 89.355 210.745 89.115C210.745 88.935 210.665 88.695 210.505 88.395C210.365 88.095 210.105 87.945 209.725 87.945C209.625 87.945 209.555 87.955 209.515 87.975C209.435 87.795 209.295 87.645 209.095 87.525C208.895 87.405 208.605 87.345 208.225 87.345C207.505 87.345 206.795 87.555 206.095 87.975C205.395 88.375 204.735 88.905 204.115 89.565C203.515 90.225 202.975 90.955 202.495 91.755C202.029 92.5133 201.657 93.2811 201.379 94.0583C200.901 94.9782 200.39 95.7905 199.847 96.495C199.107 97.435 198.307 97.905 197.447 97.905C197.047 97.905 196.707 97.745 196.427 97.425C196.147 97.085 195.907 96.685 195.707 96.225C195.527 95.765 195.387 95.325 195.287 94.905C195.187 94.485 195.127 94.195 195.107 94.035C195.407 94.035 195.787 93.975 196.247 93.855C196.727 93.715 197.197 93.515 197.657 93.255C198.137 92.975 198.537 92.615 198.857 92.175C199.197 91.715 199.367 91.165 199.367 90.525C199.367 89.785 199.107 89.155 198.587 88.635C198.067 88.115 197.437 87.855 196.697 87.855C195.957 87.855 195.247 88.135 194.567 88.695C193.887 89.255 193.257 89.975 192.677 90.855C192.097 91.735 191.577 92.655 191.117 93.615C190.677 94.575 190.297 95.455 189.977 96.255C189.977 95.215 190.137 93.935 190.457 92.415C190.797 90.875 191.297 89.295 191.957 87.675C192.837 87.135 193.647 86.485 194.387 85.725C195.147 84.965 195.797 84.155 196.337 83.295C196.897 82.435 197.327 81.585 197.627 80.745C197.927 79.885 198.077 79.115 198.077 78.435C198.077 77.895 197.987 77.435 197.807 77.055C197.647 76.675 197.427 76.485 197.147 76.485C196.787 76.485 196.317 76.815 195.737 77.475C195.157 78.135 194.527 79.025 193.847 80.145C193.167 81.265 192.487 82.515 191.807 83.895C191.127 85.275 190.497 86.705 189.917 88.185C189.357 89.645 188.907 91.055 188.567 92.415C188.482 92.7532 188.408 93.0815 188.345 93.3999C187.883 94.2229 187.337 94.9846 186.707 95.685C185.987 96.485 185.207 97.135 184.367 97.635C183.527 98.115 182.677 98.355 181.817 98.355C180.897 98.355 180.267 98.095 179.927 97.575C179.607 97.035 179.447 96.455 179.447 95.835C179.447 95.675 179.457 95.505 179.477 95.325C179.497 95.145 179.527 94.955 179.567 94.755C180.427 94.675 181.287 94.475 182.147 94.155C183.027 93.815 183.827 93.385 184.547 92.865C185.287 92.345 185.877 91.755 186.317 91.095C186.777 90.415 187.007 89.695 187.007 88.935C187.007 88.195 186.807 87.705 186.407 87.465C186.027 87.225 185.607 87.105 185.147 87.105C184.267 87.105 183.377 87.385 182.477 87.945C181.577 88.485 180.747 89.195 179.987 90.075C179.247 90.955 178.647 91.895 178.187 92.895C177.747 93.895 177.527 94.845 177.527 95.745C177.527 96.725 177.827 97.545 178.427 98.205ZM181.547 93.405C180.867 93.745 180.257 94.005 179.717 94.185C179.917 93.465 180.217 92.745 180.617 92.025C181.017 91.305 181.467 90.645 181.967 90.045C182.467 89.445 182.987 88.965 183.527 88.605C184.067 88.225 184.577 88.035 185.057 88.035C185.317 88.035 185.487 88.095 185.567 88.215C185.647 88.335 185.687 88.505 185.687 88.725C185.687 89.365 185.477 89.975 185.057 90.555C184.657 91.135 184.137 91.665 183.497 92.145C182.877 92.625 182.227 93.045 181.547 93.405ZM194.867 83.955C194.187 84.895 193.387 85.735 192.467 86.475C193.047 85.135 193.647 83.895 194.267 82.755C194.887 81.595 195.437 80.665 195.917 79.965C196.417 79.265 196.767 78.915 196.967 78.915C197.027 78.915 197.057 79.005 197.057 79.185C197.057 79.685 196.867 80.375 196.487 81.255C196.107 82.115 195.567 83.015 194.867 83.955ZM205.495 96.975C204.975 97.375 204.485 97.575 204.025 97.575C203.665 97.575 203.385 97.435 203.185 97.155C202.985 96.875 202.885 96.505 202.885 96.045C202.885 95.585 202.975 95.035 203.155 94.395C203.355 93.755 203.625 93.095 203.965 92.415C204.305 91.735 204.715 91.105 205.195 90.525C205.675 89.925 206.205 89.445 206.785 89.085C207.385 88.705 208.025 88.515 208.705 88.515C208.545 88.775 208.405 89.125 208.285 89.565C208.185 90.005 208.135 90.565 208.135 91.245C208.135 91.905 208.195 92.475 208.315 92.955C207.955 93.815 207.525 94.595 207.025 95.295C206.525 95.995 206.015 96.555 205.495 96.975ZM249.887 84.555C250.127 84.715 250.407 84.795 250.727 84.795C251.227 84.795 251.677 84.625 252.077 84.285C252.497 83.925 252.707 83.525 252.707 83.085C252.707 82.805 252.607 82.595 252.407 82.455C252.227 82.315 251.997 82.245 251.717 82.245C251.237 82.245 250.747 82.395 250.247 82.695C249.767 82.995 249.527 83.375 249.527 83.835C249.527 84.155 249.647 84.395 249.887 84.555ZM243.947 103.965C243.187 104.845 242.607 105.285 242.207 105.285C242.067 105.285 241.947 105.225 241.847 105.105C241.747 105.005 241.697 104.825 241.697 104.565C241.697 103.925 242.077 103.205 242.837 102.405C243.577 101.605 244.707 100.835 246.227 100.095C245.447 101.815 244.687 103.105 243.947 103.965ZM258.1 84.705C258.36 84.865 258.65 84.945 258.97 84.945C259.45 84.945 259.89 84.775 260.29 84.435C260.71 84.075 260.92 83.705 260.92 83.325C260.92 82.985 260.83 82.745 260.65 82.605C260.47 82.465 260.23 82.395 259.93 82.395C259.45 82.395 258.96 82.555 258.46 82.875C257.98 83.175 257.74 83.535 257.74 83.955C257.74 84.295 257.86 84.545 258.1 84.705Z" fill="url(#paint0_linear)"/>
<path d="M127.427 112.94C124.332 111.447 121.428 114.033 121.326 118.083C121.165 124.196 127.229 129.165 133.144 129.188C139.634 129.211 146.159 124.231 151.254 120.779C152.38 120.018 162.306 112.138 168.532 115.561C162.611 114.137 156.529 118.897 152.086 121.907C146.459 125.724 140.304 130.059 133.096 130.17C126.577 130.274 119.812 125.44 119.967 118.025C120.075 112.69 124.35 109.471 129.151 111.185C132.767 112.481 134.641 117.723 129.833 119.611C131.115 117.949 130.636 114.498 127.427 112.94Z" fill="url(#paint1_linear)"/>
<path d="M174.225 130.083C177.56 132.117 181.822 129.641 181.828 126.294C181.828 121.14 174.447 117.56 170.017 117.618C163.533 117.699 157.001 122.575 151.906 126.027C150.787 126.788 140.861 134.668 134.634 131.245C140.549 132.669 146.632 127.909 151.074 124.899C156.702 121.081 162.862 116.729 170.07 116.636C175.967 116.56 183.05 120.518 183.565 126.689C183.918 130.914 179.559 134.092 175.512 132.645C174.483 132.279 173.543 131.605 172.83 130.606C172.094 129.571 171.405 128.002 171.938 126.805C172.226 126.178 172.824 125.48 173.962 125.387C175.315 125.277 176.5 126.242 176.614 127.537C176.722 128.833 175.722 129.966 174.369 130.071C174.321 130.077 174.273 130.083 174.225 130.083Z" fill="url(#paint2_linear)"/>
<path d="M197.418 130.78C200.507 132.274 203.411 129.688 203.519 125.643C203.674 119.524 197.61 114.556 191.695 114.532C185.211 114.509 178.686 119.489 173.585 122.947C172.465 123.708 162.539 131.582 156.313 128.159C162.228 129.583 168.316 124.824 172.753 121.814C178.386 117.996 184.541 113.661 191.749 113.55C198.268 113.446 205.033 118.281 204.878 125.696C204.764 131.03 200.489 134.249 195.688 132.535C192.078 131.239 190.198 125.998 195.011 124.115C193.724 125.771 194.203 129.223 197.418 130.78Z" fill="url(#paint3_linear)"/>
<path d="M150.62 113.638C147.279 111.604 143.016 114.079 143.016 117.426C143.016 122.587 150.398 126.16 154.822 126.102C161.312 126.021 167.838 121.145 172.932 117.694C174.058 116.932 183.984 109.053 190.21 112.475C184.295 111.052 178.207 115.817 173.765 118.821C168.137 122.639 161.983 126.997 154.774 127.084C148.877 127.166 141.789 123.203 141.28 117.037C140.927 112.812 145.279 109.628 149.332 111.075C150.362 111.447 151.296 112.115 152.015 113.12C152.751 114.155 153.439 115.718 152.901 116.915C152.619 117.543 152.021 118.246 150.877 118.333C149.53 118.443 148.345 117.479 148.231 116.189C148.117 114.893 149.123 113.754 150.476 113.649C150.524 113.643 150.572 113.643 150.62 113.638Z" fill="url(#paint4_linear)"/>
<path fill-rule="evenodd" clip-rule="evenodd" d="M109.281 121.86V121.186L77.3591 121.86L109.281 122.534V121.86Z" fill="url(#paint5_linear)"/>
<path fill-rule="evenodd" clip-rule="evenodd" d="M215.564 121.86V121.186L247.48 121.86L215.564 122.534V121.86Z" fill="url(#paint6_linear)"/>
<defs>
<linearGradient id="paint0_linear" x1="173.35" y1="44" x2="173.35" y2="106.305" gradientUnits="userSpaceOnUse">
<stop stop-color="#C58509"/>
<stop offset="1" stop-color="#885A00"/>
</linearGradient>
<linearGradient id="paint1_linear" x1="144.248" y1="110.723" x2="144.248" y2="130.172" gradientUnits="userSpaceOnUse">
<stop stop-color="#C58509"/>
<stop offset="1" stop-color="#805C00"/>
</linearGradient>
<linearGradient id="paint2_linear" x1="159.11" y1="116.635" x2="159.11" y2="133" gradientUnits="userSpaceOnUse">
<stop stop-color="#C58509"/>
<stop offset="1" stop-color="#805C00"/>
</linearGradient>
<linearGradient id="paint3_linear" x1="180.597" y1="113.549" x2="180.597" y2="132.998" gradientUnits="userSpaceOnUse">
<stop stop-color="#C58509"/>
<stop offset="1" stop-color="#805C00"/>
</linearGradient>
<linearGradient id="paint4_linear" x1="165.735" y1="110.721" x2="165.735" y2="127.086" gradientUnits="userSpaceOnUse">
<stop stop-color="#C58509"/>
<stop offset="1" stop-color="#805C00"/>
</linearGradient>
<linearGradient id="paint5_linear" x1="93.3199" y1="121.186" x2="93.3199" y2="122.534" gradientUnits="userSpaceOnUse">
<stop stop-color="#C58509"/>
<stop offset="1" stop-color="#805C00"/>
</linearGradient>
<linearGradient id="paint6_linear" x1="231.522" y1="121.186" x2="231.522" y2="122.534" gradientUnits="userSpaceOnUse">
<stop stop-color="#C58509"/>
<stop offset="1" stop-color="#805C00"/>
</linearGradient>
</defs>
</svg>
